<svg xmlns="http://www.w3.org/2000/svg" viewBox="0 0 32 32">
  <defs>
    <radialGradient id="sun" cx="50%" cy="45%" r="60%">
      <stop offset="0%" stop-color="#f5cd72"/>
      <stop offset="60%" stop-color="#e8a948"/>
      <stop offset="100%" stop-color="#a6762a"/>
    </radialGradient>
  </defs>
  <rect width="32" height="32" rx="6" fill="#0a0b0d"/>
  <circle cx="16" cy="16" r="6" fill="url(#sun)"/>
  <g stroke="#e8a948" stroke-width="1.4" stroke-linecap="round">
    <line x1="16" y1="3" x2="16" y2="6.5"/>
    <line x1="16" y1="25.5" x2="16" y2="29"/>
    <line x1="3" y1="16" x2="6.5" y2="16"/>
    <line x1="25.5" y1="16" x2="29" y2="16"/>
    <line x1="6.6" y1="6.6" x2="9" y2="9"/>
    <line x1="23" y1="23" x2="25.4" y2="25.4"/>
    <line x1="6.6" y1="25.4" x2="9" y2="23"/>
    <line x1="23" y1="9" x2="25.4" y2="6.6"/>
  </g>
  <path
    d="M16 11.8 L17.2 14.8 L20.2 14.8 L17.8 16.6 L18.7 19.5 L16 17.8 L13.3 19.5 L14.2 16.6 L11.8 14.8 L14.8 14.8 Z"
    fill="#0a0b0d"
    opacity="0.35"
  />
</svg>
